<svg width="112" height="28" viewBox="0 0 112 28" fill="none" xmlns="http://www.w3.org/2000/svg">
<path d="M42.3372 4.62012H39.3281V23.4267H43.6772V15.8806H50.471V12.2133H43.6772V8.49898H50.7531V4.62012H43.6772H42.3372Z" fill="#F4FEF5"/>
<path d="M57.4082 4.62012H52.8711V23.4267H64.9543V19.5243H57.4082V4.62012Z" fill="#F4FEF5"/>
<path d="M71.678 4.62012H67.0469V23.4267H71.678V4.62012Z" fill="#F4FEF5"/>
<path d="M75.2031 4.62012V8.68704H82.6787L73.9102 23.4267H88.9789V19.5243H81.0567L89.9428 4.62012H75.2031Z" fill="#F4FEF5"/>
<path d="M97.5827 12.9657C97.5827 12.472 97.4651 12.0254 97.2536 11.6728C97.042 11.3201 96.7129 11.038 96.2897 10.85C95.8666 10.6619 95.3494 10.5679 94.7147 10.5679H92.1758V17.9024H93.9389V15.3636H94.7147C95.3494 15.3636 95.8666 15.2695 96.2897 15.0815C96.7129 14.8934 97.042 14.6113 97.2536 14.2587C97.4886 13.8825 97.5827 13.4594 97.5827 12.9657ZM95.5845 13.671C95.3729 13.8355 95.1143 13.906 94.7382 13.906H93.9624V12.0254H94.7382C95.0908 12.0254 95.3729 12.0959 95.5845 12.2605C95.7961 12.425 95.8901 12.6601 95.8901 12.9657C95.8666 13.2948 95.7725 13.5064 95.5845 13.671Z" fill="#F4FEF5"/>
<path d="M97.207 17.9023H99.2052L99.887 16.4918H102.238L102.92 17.9023H104.941L101.062 10.1211L97.207 17.9023ZM101.885 15.1519H100.263L101.086 13.2712L101.885 15.1519Z" fill="#F4FEF5"/>
<path d="M109.077 10.5679L107.643 13.3183L106.209 10.5679H104.164L106.726 14.9404V17.926H108.537V14.9404L111.099 10.5914H109.077V10.5679Z" fill="#F4FEF5"/>
<path d="M22.8955 18.0903H17.0445L23.6268 7.06494H4.39453V20.9867H7.61516V15.3869H12.6459V12.6834H7.6451V9.93295H12.6929H18.0998L11.7526 20.9583H22.8955V18.0903Z" fill="#001F3F"/>
<path d="M13.9874 0.0126953C6.2532 0.0126953 0 6.2894 0 14.0001C0 21.7343 6.27671 27.9875 13.9874 27.9875C21.7216 27.9875 27.9983 21.7108 27.9983 14.0001C27.9983 6.26589 21.7216 0.0126953 13.9874 0.0126953ZM11.7541 20.9585L18.1249 9.93318H12.718H7.64019V12.6836H12.6474V15.3871H7.61668V20.9821H4.39604V7.06517H23.6258L17.0435 18.0905H22.897V20.9585H11.7541Z" fill="#80ED99"/>
</svg>
